<svg viewBox="0 0 24 24" xmlns="http://www.w3.org/2000/svg" xmlns:xlink="http://www.w3.org/1999/xlink" width="24.000000" height="24.000000" fill="none" clip-path="url(#clipPath_2)" customFrame="url(#clipPath_2)">
	<mask id="mask_7" width="16.000000" height="16.000000" x="4.000000" y="4.000000" maskUnits="userSpaceOnUse">
		<g filter="url(#pixso_custom_mask_type_alpha)">
			<g id="mask1262_111564">
				<path id="mask" d="M20 4L4 4L4 20L13.337 20C11.3866 19.2613 10 17.3759 10 15.1667C10 12.3132 12.3132 10 15.1667 10C17.3759 10 19.2613 11.3866 20 13.337L20 4Z" fill="rgb(196,196,196)" fill-rule="evenodd" />
			</g>
		</g>
	</mask>
	<mask id="mask_6" width="16.000000" height="16.000000" x="4.000000" y="4.000000" maskUnits="userSpaceOnUse">
		<g filter="url(#pixso_custom_mask_type_alpha)">
			<g id="mask1262_111551">
				<path id="mask" d="M20 4L4 4L4 20L13.337 20C11.3866 19.2613 10 17.3759 10 15.1667C10 12.3132 12.3132 10 15.1667 10C17.3759 10 19.2613 11.3866 20 13.337L20 4Z" fill="rgb(196,196,196)" fill-rule="evenodd" />
			</g>
		</g>
	</mask>
	<mask id="mask_5" width="16.000000" height="16.000000" x="4.000000" y="4.000000" maskUnits="userSpaceOnUse">
		<g filter="url(#pixso_custom_mask_type_alpha)">
			<g id="mask1262_111551">
				<path id="mask" d="M20 4L4 4L4 20L13.337 20C11.3866 19.2613 10 17.3759 10 15.1667C10 12.3132 12.3132 10 15.1667 10C17.3759 10 19.2613 11.3866 20 13.337L20 4Z" fill="rgb(196,196,196)" fill-rule="evenodd" />
			</g>
		</g>
	</mask>
	<mask id="mask_4" width="16.000000" height="16.000000" x="4.000000" y="4.000000" maskUnits="userSpaceOnUse">
		<g filter="url(#pixso_custom_mask_type_alpha)">
			<g id="mask1262_111551">
				<path id="mask" d="M20 4L4 4L4 20L13.337 20C11.3866 19.2613 10 17.3759 10 15.1667C10 12.3132 12.3132 10 15.1667 10C17.3759 10 19.2613 11.3866 20 13.337L20 4Z" fill="rgb(196,196,196)" fill-rule="evenodd" />
			</g>
		</g>
	</mask>
	<mask id="mask_3" width="16.000000" height="16.000000" x="4.000000" y="4.000000" maskUnits="userSpaceOnUse">
		<g filter="url(#pixso_custom_mask_type_alpha)">
			<g id="mask1262_111551">
				<path id="mask" d="M20 4L4 4L4 20L13.337 20C11.3866 19.2613 10 17.3759 10 15.1667C10 12.3132 12.3132 10 15.1667 10C17.3759 10 19.2613 11.3866 20 13.337L20 4Z" fill="rgb(196,196,196)" fill-rule="evenodd" />
			</g>
		</g>
	</mask>
	<mask id="mask_2" width="16.000000" height="16.000000" x="4.000000" y="4.000000" maskUnits="userSpaceOnUse">
		<g filter="url(#pixso_custom_mask_type_alpha)">
			<g id="mask1262_111551">
				<path id="mask" d="M20 4L4 4L4 20L13.337 20C11.3866 19.2613 10 17.3759 10 15.1667C10 12.3132 12.3132 10 15.1667 10C17.3759 10 19.2613 11.3866 20 13.337L20 4Z" fill="rgb(196,196,196)" fill-rule="evenodd" />
			</g>
		</g>
	</mask>
	<defs>
		<clipPath id="clipPath_2">
			<rect width="24.000000" height="24.000000" x="0.000000" y="0.000000" rx="12.000000" fill="rgb(255,255,255)" />
		</clipPath>
		<clipPath id="clipPath_3">
			<rect width="16.000000" height="16.000000" x="4.000000" y="4.000000" fill="rgb(255,255,255)" />
		</clipPath>
		<filter id="pixso_custom_mask_type_alpha">
			<feColorMatrix type="matrix" values="0 0 0 0 1 0 0 0 0 1 0 0 0 0 1 0 0 0 1 0 " />
		</filter>
	</defs>
	<rect id="画板 1630" width="24.000000" height="24.000000" x="0.000000" y="0.000000" rx="12.000000" fill="rgb(82,145,255)" />
	<g id="svg" clip-path="url(#clipPath_3)" customFrame="url(#clipPath_3)">
		<rect id="svg" width="16.000000" height="16.000000" x="4.000000" y="4.000000" />
		<path id="path1" d="M4.00002 11.9944C4.00002 10.7444 3.99668 9.49436 4.00002 8.24436C3.99668 7.63769 4.07335 7.03436 4.22002 6.45102C4.55002 5.21102 5.35668 4.47436 6.59668 4.18769C7.21668 4.05436 7.85335 3.99102 8.48668 4.00102C10.8834 4.00102 13.28 4.00102 15.68 4.00102C16.2833 3.99769 16.8867 4.06436 17.4767 4.20769C18.7533 4.51769 19.52 5.32769 19.81 6.60102C19.9434 7.20102 20.0034 7.81436 19.9967 8.43102C19.9967 10.8544 19.9967 13.2777 19.9967 15.6977C20 16.2977 19.9333 16.8977 19.7934 17.481C19.48 18.7577 18.6667 19.5177 17.3967 19.811C16.7733 19.9444 16.14 20.0077 15.5033 19.9977C13.1167 19.9977 10.73 19.9977 8.34335 19.9977C7.73335 20.0044 7.12668 19.9344 6.53335 19.7944C5.25002 19.4844 4.48002 18.671 4.19002 17.391C4.04002 16.741 4.00002 16.091 4.00002 15.4344C4.00002 14.2877 4.00002 13.141 4.00002 11.9944Z" fill="rgb(255,255,255)" fill-opacity="0" fill-rule="evenodd" />
		<circle id="path2" cx="12" cy="12" r="8" fill="rgb(255,255,255)" fill-opacity="0" />
		<g id="mask" mask="url(#mask_2)">
			<g id="g">
				<path id="path3" d="M16.8332 5.16797C17.9365 5.16797 18.8332 6.0613 18.8332 7.16797L18.8332 16.8346C18.8332 17.938 17.9365 18.8346 16.8332 18.8346L7.1665 18.8346C6.05984 18.8346 5.1665 17.938 5.1665 16.8346L5.1665 7.16797C5.1665 6.0613 6.05984 5.16797 7.1665 5.16797L16.8332 5.16797Z" fill="rgb(0,0,0)" fill-opacity="0" fill-rule="nonzero" />
				<path id="path3" d="M18.8332 7.16797L18.8332 16.8346C18.8332 17.938 17.9365 18.8346 16.8332 18.8346L7.1665 18.8346C6.05984 18.8346 5.1665 17.938 5.1665 16.8346L5.1665 7.16797C5.1665 6.0613 6.05984 5.16797 7.1665 5.16797L16.8332 5.16797C17.9365 5.16797 18.8332 6.0613 18.8332 7.16797Z" fill-rule="nonzero" stroke="rgb(255,255,255)" stroke-opacity="0" stroke-width="1" />
			</g>
		</g>
		<g id="mask" mask="url(#mask_3)">
			<g id="g">
				<path id="路径 6" />
				<path id="路径 6" d="M0 0L3.33333 0" stroke="rgb(255,255,255)" stroke-opacity="0" stroke-linecap="round" stroke-linejoin="round" stroke-width="1" transform="matrix(0,1,-1,0,8.5,11.1328)" />
			</g>
		</g>
		<g id="mask" mask="url(#mask_4)">
			<g id="g">
				<path id="路径 6备份" />
				<path id="路径 6备份" d="M0 0L6.4 0" stroke="rgb(255,255,255)" stroke-opacity="0" stroke-linecap="round" stroke-linejoin="round" stroke-width="1" transform="matrix(0,1,-1,0,10.8335,9.19531)" />
			</g>
		</g>
		<g id="mask" mask="url(#mask_5)">
			<g id="g">
				<path id="路径 6备份" />
				<path id="路径 6备份" d="M0 0L8 0" stroke="rgb(255,255,255)" stroke-opacity="0" stroke-linecap="round" stroke-linejoin="round" stroke-width="1" transform="matrix(0,1,-1,0,13.1665,8)" />
			</g>
		</g>
		<g id="mask" mask="url(#mask_6)">
			<g id="g">
				<path id="路径 6备份" />
				<path id="路径 6备份" d="M0 0L6.80333 0" stroke="rgb(255,255,255)" stroke-opacity="0" stroke-linecap="round" stroke-linejoin="round" stroke-width="1" transform="matrix(0,1,-1,0,15.5,9.19531)" />
			</g>
		</g>
		<circle id="fuxing1" cx="15.166667" cy="15.166667" r="3.66666675" fill="rgb(0,0,0)" fill-opacity="0" />
		<circle id="fuxing1" cx="15.166667" cy="15.166667" r="3.66666675" stroke="rgb(255,255,255)" stroke-opacity="0" stroke-linejoin="round" stroke-width="1" />
		<path id="fuxing2" d="M13.6968 15.5238L15.1734 17.0005L16.6501 15.5238M15.1734 13.4238L15.1734 17.0005" stroke="rgb(255,255,255)" stroke-opacity="0" stroke-linecap="round" stroke-linejoin="round" stroke-width="1" />
		<g id="mask" mask="url(#mask_7)">
			<g id="g">
				<path id="减去顶层" d="M16.8332 4.66797L7.1665 4.66797C5.78581 4.66797 4.6665 5.78727 4.6665 7.16797L4.6665 16.8346C4.6665 18.2153 5.78581 19.3346 7.1665 19.3346L16.8332 19.3346C18.2139 19.3346 19.3332 18.2153 19.3332 16.8346L19.3332 7.16797C19.3332 5.78727 18.2139 4.66797 16.8332 4.66797ZM13.6665 8.0013L13.6665 16.0013C13.6665 16.2813 13.4465 16.5013 13.1665 16.5013C12.8865 16.5013 12.6665 16.2813 12.6665 16.0013L12.6665 8.0013C12.6665 7.7213 12.8865 7.5013 13.1665 7.5013C13.4465 7.5013 13.6665 7.7213 13.6665 8.0013ZM11.3332 15.6009L11.3332 9.20117C11.3332 8.92117 11.1132 8.70117 10.8332 8.70117C10.5531 8.70117 10.3332 8.92117 10.3332 9.20117L10.3332 15.6009C10.3332 15.8809 10.5531 16.1009 10.8332 16.1009C11.1132 16.1009 11.3332 15.8809 11.3332 15.6009ZM15.9998 16.0013L15.9998 9.20117C15.9998 8.92117 15.7799 8.70117 15.4998 8.70117C15.2198 8.70117 14.9998 8.92117 14.9998 9.20117L14.9998 16.0013C14.9998 16.2813 15.2198 16.5013 15.4998 16.5013C15.7799 16.5013 15.9998 16.2813 15.9998 16.0013ZM8.99984 11.1348L8.99984 14.4681C8.99984 14.7481 8.77987 14.9681 8.49984 14.9681C8.2198 14.9681 7.99984 14.7481 7.99984 14.4681L7.99984 11.1348C7.99984 10.8548 8.2198 10.6348 8.49984 10.6348C8.77987 10.6348 8.99984 10.8548 8.99984 11.1348Z" fill="rgb(254.745,254.871,255)" fill-rule="evenodd" />
			</g>
		</g>
		<path id="fuxing3" d="M19.3333 15.1667C19.3333 12.8655 17.4679 11 15.1667 11C12.8655 11 11 12.8655 11 15.1667C11 17.4679 12.8655 19.3333 15.1667 19.3333C17.4679 19.3333 19.3333 17.4679 19.3333 15.1667Z" fill="rgb(254.745,254.872,255)" fill-rule="evenodd" />
		<path id="path11" d="M17.2637 14.9016L15.4485 16.6516C15.3328 16.7631 15.2171 16.8188 15.1015 16.8188C14.9858 16.8188 14.8701 16.7631 14.7545 16.6516L13.5697 15.5093C13.3681 15.315 13.3624 15.0039 13.5567 14.8023C13.7511 14.6007 14.0621 14.5951 14.2637 14.7894L15.1015 15.5971L16.5697 14.1816C16.7712 13.9873 17.0823 13.993 17.2766 14.1946C17.4709 14.3962 17.4653 14.7072 17.2637 14.9016Z" fill="rgb(82,145,255)" fill-rule="evenodd" />
	</g>
</svg>
